<svg width="254" height="254" viewBox="0 0 254 254" fill="none" xmlns="http://www.w3.org/2000/svg">
<rect width="240" height="225" rx="20" fill="#271761"/>
<path fill-rule="evenodd" clip-rule="evenodd" d="M110 90H140V98H152V117H157V165H113V157H98V98H110V90ZM110 104H104V151H113V117H146V104H140V112H110V104ZM116 96V106H134V96H116ZM119 123V159H151V123H119ZM145 137H125V131H145V137ZM125 148H145V142H125V148Z" fill="white"/>
<circle cx="36.5" cy="35.5" r="20.5" fill="#FF3E51"/>
<path d="M38.725 26.5V44H34.675V29.75H31.175V26.5H38.725Z" fill="white"/>
</svg>
